<svg width="598" height="151" viewBox="0 0 598 151" fill="none" xmlns="http://www.w3.org/2000/svg">
<path d="M30.7 100.2C25.5667 100.2 21.0333 99.3333 17.1 97.6C13.1667 95.8 10.0667 93.2667 7.8 90C5.53333 86.6667 4.36667 82.6333 4.3 77.9H17.8C17.9333 81.1667 19.1 83.9333 21.3 86.2C23.5667 88.4 26.6667 89.5 30.6 89.5C34 89.5 36.7 88.7 38.7 87.1C40.7 85.4333 41.7 83.2333 41.7 80.5C41.7 77.6333 40.8 75.4 39 73.8C37.2667 72.2 34.9333 70.9 32 69.9C29.0667 68.9 25.9333 67.8333 22.6 66.7C17.2 64.8333 13.0667 62.4333 10.2 59.5C7.4 56.5667 6 52.6667 6 47.8C5.93333 43.6667 6.9 40.1333 8.9 37.2C10.9667 34.2 13.7667 31.9 17.3 30.3C20.8333 28.6333 24.9 27.8 29.5 27.8C34.1667 27.8 38.2667 28.6333 41.8 30.3C45.4 31.9667 48.2 34.3 50.2 37.3C52.2667 40.3 53.3667 43.8667 53.5 48H39.8C39.7333 45.5333 38.7667 43.3667 36.9 41.5C35.1 39.5667 32.5667 38.6 29.3 38.6C26.5 38.5333 24.1333 39.2333 22.2 40.7C20.3333 42.1 19.4 44.1667 19.4 46.9C19.4 49.2333 20.1333 51.1 21.6 52.5C23.0667 53.8333 25.0667 54.9667 27.6 55.9C30.1333 56.8333 33.0333 57.8333 36.3 58.9C39.7667 60.1 42.9333 61.5 45.8 63.1C48.6667 64.7 50.9667 66.8333 52.7 69.5C54.4333 72.1 55.3 75.4667 55.3 79.6C55.3 83.2667 54.3667 86.6667 52.5 89.8C50.6333 92.9333 47.8667 95.4667 44.2 97.4C40.5333 99.2667 36.0333 100.2 30.7 100.2ZM72.368 121L83.868 95.7H80.868L61.568 49.4H75.468L89.368 84.3L103.868 49.4H117.468L85.968 121H72.368ZM125.836 99V49.4H137.136L138.136 57.8C139.669 54.8667 141.869 52.5333 144.736 50.8C147.669 49.0667 151.103 48.2 155.036 48.2C161.169 48.2 165.936 50.1333 169.336 54C172.736 57.8667 174.436 63.5333 174.436 71V99H161.636V72.2C161.636 67.9333 160.769 64.6667 159.036 62.4C157.303 60.1333 154.603 59 150.936 59C147.336 59 144.369 60.2667 142.036 62.8C139.769 65.3333 138.636 68.8667 138.636 73.4V99H125.836ZM208.776 99C203.576 99 199.409 97.7333 196.276 95.2C193.142 92.6667 191.576 88.1667 191.576 81.7V60.1H183.076V49.4H191.576L193.076 36.1H204.376V49.4H217.776V60.1H204.376V81.8C204.376 84.2 204.876 85.8667 205.876 86.8C206.942 87.6667 208.742 88.1 211.276 88.1H217.476V99H208.776ZM228.766 99V27H241.566V57C243.232 54.2667 245.466 52.1333 248.266 50.6C251.132 49 254.399 48.2 258.066 48.2C264.199 48.2 268.932 50.1333 272.266 54C275.666 57.8667 277.366 63.5333 277.366 71V99H264.666V72.2C264.666 67.9333 263.799 64.6667 262.066 62.4C260.399 60.1333 257.732 59 254.066 59C250.466 59 247.466 60.2667 245.066 62.8C242.732 65.3333 241.566 68.8667 241.566 73.4V99H228.766ZM289.905 99V29H335.105V39.3H302.705V58.9H328.905V69H302.705V99H289.905ZM344.684 99V27H357.484V99H344.684ZM451.747 99L437.247 49.4H449.947L458.547 85.1L468.547 49.4H482.747L492.747 85.1L501.447 49.4H514.147L499.547 99H486.247L475.647 61.9L465.047 99H451.747Z" fill="white"/>
<path fill-rule="evenodd" clip-rule="evenodd" d="M399.5 104C416.345 104 430 90.3447 430 73.5C430 56.6553 416.345 43 399.5 43C382.655 43 369 56.6553 369 73.5C369 90.3447 382.655 104 399.5 104ZM399.752 91.3967C409.775 91.3967 417.901 83.2712 417.901 73.2479C417.901 63.2246 409.775 55.0992 399.752 55.0992C389.729 55.0992 381.603 63.2246 381.603 73.2479C381.603 83.2712 389.729 91.3967 399.752 91.3967Z" fill="url(#paint0_radial)"/>
<path d="M185.149 128L180.652 143H178.162L175.071 132.263C174.954 131.853 174.876 131.389 174.837 130.871H174.778C174.749 131.223 174.646 131.677 174.471 132.233L171.116 143H168.714L164.173 128H166.692L169.798 139.279C169.896 139.621 169.964 140.07 170.003 140.627H170.12C170.149 140.197 170.237 139.738 170.384 139.25L173.841 128H176.038L179.144 139.309C179.241 139.67 179.314 140.119 179.363 140.656H179.48C179.5 140.275 179.583 139.826 179.729 139.309L182.776 128H185.149ZM199.988 136.101H189.397C189.437 137.771 189.886 139.06 190.745 139.968C191.604 140.876 192.786 141.33 194.29 141.33C195.979 141.33 197.532 140.773 198.948 139.66V141.916C197.63 142.873 195.887 143.352 193.719 143.352C191.6 143.352 189.935 142.673 188.724 141.315C187.513 139.948 186.907 138.029 186.907 135.559C186.907 133.225 187.566 131.325 188.885 129.86C190.213 128.386 191.858 127.648 193.821 127.648C195.784 127.648 197.303 128.283 198.377 129.553C199.451 130.822 199.988 132.585 199.988 134.841V136.101ZM197.527 134.064C197.518 132.678 197.181 131.599 196.517 130.827C195.862 130.056 194.949 129.67 193.777 129.67C192.645 129.67 191.683 130.075 190.892 130.886C190.101 131.696 189.612 132.756 189.427 134.064H197.527ZM206.097 140.832H206.038V143H203.636V120.793H206.038V130.637H206.097C207.278 128.645 209.007 127.648 211.282 127.648C213.206 127.648 214.71 128.322 215.794 129.67C216.888 131.008 217.435 132.805 217.435 135.061C217.435 137.57 216.824 139.582 215.604 141.096C214.383 142.6 212.713 143.352 210.594 143.352C208.611 143.352 207.112 142.512 206.097 140.832ZM206.038 134.782V136.877C206.038 138.117 206.438 139.172 207.239 140.041C208.05 140.9 209.075 141.33 210.315 141.33C211.771 141.33 212.908 140.773 213.729 139.66C214.559 138.547 214.974 136.999 214.974 135.017C214.974 133.347 214.588 132.038 213.816 131.091C213.045 130.144 212 129.67 210.682 129.67C209.285 129.67 208.162 130.158 207.312 131.135C206.463 132.102 206.038 133.317 206.038 134.782ZM222.107 143.322C221.658 143.322 221.272 143.161 220.95 142.839C220.638 142.517 220.481 142.131 220.481 141.682C220.481 141.232 220.638 140.847 220.95 140.524C221.272 140.192 221.658 140.026 222.107 140.026C222.566 140.026 222.957 140.192 223.279 140.524C223.602 140.847 223.763 141.232 223.763 141.682C223.763 142.131 223.602 142.517 223.279 142.839C222.957 143.161 222.566 143.322 222.107 143.322ZM238.514 143H236.111V140.656H236.053C235.008 142.453 233.47 143.352 231.438 143.352C229.944 143.352 228.772 142.956 227.923 142.165C227.083 141.374 226.663 140.324 226.663 139.016C226.663 136.213 228.313 134.582 231.614 134.123L236.111 133.493C236.111 130.944 235.081 129.67 233.021 129.67C231.214 129.67 229.583 130.285 228.128 131.516V129.055C229.603 128.117 231.302 127.648 233.226 127.648C236.751 127.648 238.514 129.514 238.514 133.244V143ZM236.111 135.412L232.493 135.91C231.38 136.066 230.54 136.345 229.974 136.745C229.407 137.136 229.124 137.834 229.124 138.84C229.124 139.572 229.383 140.173 229.9 140.642C230.428 141.101 231.126 141.33 231.995 141.33C233.187 141.33 234.168 140.915 234.939 140.085C235.721 139.245 236.111 138.186 236.111 136.906V135.412ZM255.169 143H252.767V140.627H252.708C251.712 142.443 250.169 143.352 248.079 143.352C244.505 143.352 242.718 141.223 242.718 136.965V128H245.105V136.584C245.105 139.748 246.316 141.33 248.738 141.33C249.91 141.33 250.872 140.9 251.624 140.041C252.386 139.172 252.767 138.039 252.767 136.643V128H255.169V143ZM272.835 143H270.433V140.451H270.374C269.261 142.385 267.542 143.352 265.218 143.352C263.333 143.352 261.824 142.683 260.691 141.345C259.568 139.997 259.007 138.166 259.007 135.852C259.007 133.371 259.632 131.384 260.882 129.89C262.132 128.396 263.797 127.648 265.877 127.648C267.938 127.648 269.437 128.459 270.374 130.08H270.433V120.793H272.835V143ZM270.433 136.218V134.006C270.433 132.795 270.032 131.77 269.231 130.93C268.431 130.09 267.415 129.67 266.185 129.67C264.72 129.67 263.567 130.207 262.728 131.281C261.888 132.355 261.468 133.84 261.468 135.734C261.468 137.463 261.868 138.83 262.669 139.836C263.479 140.832 264.563 141.33 265.921 141.33C267.259 141.33 268.343 140.847 269.173 139.88C270.013 138.913 270.433 137.692 270.433 136.218ZM278.929 124.191C278.499 124.191 278.133 124.045 277.83 123.752C277.527 123.459 277.376 123.088 277.376 122.639C277.376 122.189 277.527 121.818 277.83 121.525C278.133 121.223 278.499 121.071 278.929 121.071C279.368 121.071 279.739 121.223 280.042 121.525C280.354 121.818 280.511 122.189 280.511 122.639C280.511 123.068 280.354 123.435 280.042 123.737C279.739 124.04 279.368 124.191 278.929 124.191ZM280.101 143H277.698V128H280.101V143ZM291.233 143.352C289.017 143.352 287.244 142.653 285.916 141.257C284.598 139.851 283.938 137.99 283.938 135.676C283.938 133.156 284.627 131.188 286.004 129.772C287.381 128.356 289.241 127.648 291.585 127.648C293.821 127.648 295.564 128.337 296.814 129.714C298.074 131.091 298.704 133 298.704 135.441C298.704 137.834 298.025 139.753 296.668 141.198C295.32 142.634 293.509 143.352 291.233 143.352ZM291.409 129.67C289.866 129.67 288.646 130.197 287.747 131.252C286.849 132.297 286.399 133.742 286.399 135.588C286.399 137.365 286.854 138.767 287.762 139.792C288.67 140.817 289.886 141.33 291.409 141.33C292.962 141.33 294.153 140.827 294.983 139.821C295.823 138.815 296.243 137.385 296.243 135.529C296.243 133.654 295.823 132.209 294.983 131.193C294.153 130.178 292.962 129.67 291.409 129.67ZM309.866 142.458V139.88C311.175 140.847 312.615 141.33 314.188 141.33C316.297 141.33 317.352 140.627 317.352 139.221C317.352 138.82 317.259 138.483 317.073 138.21C316.897 137.927 316.653 137.678 316.341 137.463C316.038 137.248 315.677 137.058 315.257 136.892C314.847 136.716 314.402 136.535 313.924 136.35C313.26 136.086 312.674 135.822 312.166 135.559C311.668 135.285 311.248 134.982 310.906 134.65C310.574 134.309 310.32 133.923 310.145 133.493C309.979 133.063 309.896 132.561 309.896 131.984C309.896 131.281 310.057 130.661 310.379 130.124C310.701 129.577 311.131 129.123 311.668 128.762C312.205 128.391 312.815 128.112 313.499 127.927C314.192 127.741 314.905 127.648 315.638 127.648C316.937 127.648 318.099 127.873 319.124 128.322V130.754C318.021 130.031 316.751 129.67 315.315 129.67C314.866 129.67 314.461 129.724 314.1 129.831C313.738 129.929 313.426 130.07 313.162 130.256C312.908 130.441 312.708 130.666 312.562 130.93C312.425 131.184 312.356 131.467 312.356 131.779C312.356 132.17 312.425 132.497 312.562 132.761C312.708 133.024 312.918 133.259 313.191 133.464C313.465 133.669 313.797 133.854 314.188 134.021C314.578 134.187 315.022 134.367 315.521 134.562C316.185 134.816 316.78 135.08 317.308 135.354C317.835 135.617 318.284 135.92 318.655 136.262C319.026 136.594 319.31 136.979 319.505 137.419C319.71 137.858 319.812 138.381 319.812 138.986C319.812 139.729 319.646 140.373 319.314 140.92C318.992 141.467 318.558 141.921 318.011 142.282C317.464 142.644 316.834 142.912 316.121 143.088C315.408 143.264 314.661 143.352 313.88 143.352C312.337 143.352 310.999 143.054 309.866 142.458ZM335.457 128L328.558 145.402C327.327 148.508 325.599 150.061 323.372 150.061C322.747 150.061 322.225 149.997 321.805 149.87V147.717C322.322 147.893 322.796 147.98 323.226 147.98C324.437 147.98 325.345 147.258 325.95 145.812L327.151 142.971L321.292 128H323.958L328.016 139.543C328.064 139.689 328.167 140.07 328.323 140.686H328.411C328.46 140.451 328.558 140.08 328.704 139.572L332.967 128H335.457ZM350.501 143H348.099V134.445C348.099 131.262 346.937 129.67 344.612 129.67C343.411 129.67 342.415 130.124 341.624 131.032C340.843 131.931 340.452 133.068 340.452 134.445V143H338.05V128H340.452V130.49H340.511C341.644 128.596 343.284 127.648 345.433 127.648C347.073 127.648 348.328 128.181 349.197 129.245C350.066 130.3 350.501 131.828 350.501 133.83V143ZM362 142.854C361.434 143.166 360.687 143.322 359.759 143.322C357.132 143.322 355.818 141.857 355.818 138.928V130.051H353.24V128H355.818V124.338L358.221 123.562V128H362V130.051H358.221V138.503C358.221 139.509 358.392 140.227 358.733 140.656C359.075 141.086 359.642 141.301 360.433 141.301C361.038 141.301 361.561 141.135 362 140.803V142.854ZM377.659 143H375.257V134.357C375.257 131.232 374.095 129.67 371.771 129.67C370.599 129.67 369.612 130.124 368.812 131.032C368.011 131.931 367.61 133.088 367.61 134.504V143H365.208V120.793H367.61V130.49H367.669C368.821 128.596 370.462 127.648 372.591 127.648C375.97 127.648 377.659 129.685 377.659 133.757V143ZM394.256 136.101H383.665C383.704 137.771 384.153 139.06 385.013 139.968C385.872 140.876 387.054 141.33 388.558 141.33C390.247 141.33 391.8 140.773 393.216 139.66V141.916C391.897 142.873 390.154 143.352 387.986 143.352C385.867 143.352 384.202 142.673 382.991 141.315C381.78 139.948 381.175 138.029 381.175 135.559C381.175 133.225 381.834 131.325 383.152 129.86C384.48 128.386 386.126 127.648 388.089 127.648C390.052 127.648 391.57 128.283 392.645 129.553C393.719 130.822 394.256 132.585 394.256 134.841V136.101ZM391.795 134.064C391.785 132.678 391.448 131.599 390.784 130.827C390.13 130.056 389.217 129.67 388.045 129.67C386.912 129.67 385.95 130.075 385.159 130.886C384.368 131.696 383.88 132.756 383.694 134.064H391.795ZM396.995 142.458V139.88C398.304 140.847 399.744 141.33 401.316 141.33C403.426 141.33 404.48 140.627 404.48 139.221C404.48 138.82 404.388 138.483 404.202 138.21C404.026 137.927 403.782 137.678 403.47 137.463C403.167 137.248 402.806 137.058 402.386 136.892C401.976 136.716 401.531 136.535 401.053 136.35C400.389 136.086 399.803 135.822 399.295 135.559C398.797 135.285 398.377 134.982 398.035 134.65C397.703 134.309 397.449 133.923 397.273 133.493C397.107 133.063 397.024 132.561 397.024 131.984C397.024 131.281 397.186 130.661 397.508 130.124C397.83 129.577 398.26 129.123 398.797 128.762C399.334 128.391 399.944 128.112 400.628 127.927C401.321 127.741 402.034 127.648 402.767 127.648C404.065 127.648 405.228 127.873 406.253 128.322V130.754C405.149 130.031 403.88 129.67 402.444 129.67C401.995 129.67 401.59 129.724 401.229 129.831C400.867 129.929 400.555 130.07 400.291 130.256C400.037 130.441 399.837 130.666 399.69 130.93C399.554 131.184 399.485 131.467 399.485 131.779C399.485 132.17 399.554 132.497 399.69 132.761C399.837 133.024 400.047 133.259 400.32 133.464C400.594 133.669 400.926 133.854 401.316 134.021C401.707 134.187 402.151 134.367 402.649 134.562C403.313 134.816 403.909 135.08 404.437 135.354C404.964 135.617 405.413 135.92 405.784 136.262C406.155 136.594 406.438 136.979 406.634 137.419C406.839 137.858 406.941 138.381 406.941 138.986C406.941 139.729 406.775 140.373 406.443 140.92C406.121 141.467 405.687 141.921 405.14 142.282C404.593 142.644 403.963 142.912 403.25 143.088C402.537 143.264 401.79 143.352 401.009 143.352C399.466 143.352 398.128 143.054 396.995 142.458ZM411.878 124.191C411.448 124.191 411.082 124.045 410.779 123.752C410.477 123.459 410.325 123.088 410.325 122.639C410.325 122.189 410.477 121.818 410.779 121.525C411.082 121.223 411.448 121.071 411.878 121.071C412.317 121.071 412.688 121.223 412.991 121.525C413.304 121.818 413.46 122.189 413.46 122.639C413.46 123.068 413.304 123.435 412.991 123.737C412.688 124.04 412.317 124.191 411.878 124.191ZM413.05 143H410.647V128H413.05V143ZM428.372 128.688L419.495 140.949H428.284V143H415.965V142.253L424.842 130.051H416.8V128H428.372V128.688ZM443.533 136.101H432.942C432.981 137.771 433.431 139.06 434.29 139.968C435.149 140.876 436.331 141.33 437.835 141.33C439.524 141.33 441.077 140.773 442.493 139.66V141.916C441.175 142.873 439.432 143.352 437.264 143.352C435.145 143.352 433.479 142.673 432.269 141.315C431.058 139.948 430.452 138.029 430.452 135.559C430.452 133.225 431.111 131.325 432.43 129.86C433.758 128.386 435.403 127.648 437.366 127.648C439.329 127.648 440.848 128.283 441.922 129.553C442.996 130.822 443.533 132.585 443.533 134.841V136.101ZM441.072 134.064C441.062 132.678 440.726 131.599 440.062 130.827C439.407 130.056 438.494 129.67 437.322 129.67C436.189 129.67 435.228 130.075 434.437 130.886C433.646 131.696 433.157 132.756 432.972 134.064H441.072ZM455.003 130.432C454.583 130.109 453.978 129.948 453.187 129.948C452.161 129.948 451.302 130.432 450.608 131.398C449.925 132.365 449.583 133.684 449.583 135.354V143H447.181V128H449.583V131.091H449.642C449.983 130.036 450.506 129.216 451.209 128.63C451.912 128.034 452.698 127.736 453.567 127.736C454.192 127.736 454.671 127.805 455.003 127.941V130.432Z" fill="white"/>
<defs>
<radialGradient id="paint0_radial" cx="0" cy="0" r="1" gradientUnits="userSpaceOnUse" gradientTransform="translate(422.942 98.9587) rotate(-122.605) scale(66.427)">
<stop offset="0.135417" stop-color="#032F57"/>
<stop offset="0.626539" stop-color="#118278"/>
<stop offset="0.989583" stop-color="#6CEBBC"/>
</radialGradient>
</defs>
</svg>
