<svg width="237" height="57" viewBox="0 0 237 57" fill="none" xmlns="http://www.w3.org/2000/svg">
<path d="M26.9005 7.64568C26.9005 8.57329 26.6933 9.30353 26.2788 9.83642C25.8644 10.3693 25.4993 10.6357 25.1835 10.6357C24.8874 10.6357 23.3184 9.77721 20.4764 8.06015C18.7396 7.01412 16.914 6.49111 14.9995 6.49111C13.1048 6.49111 11.4865 6.97465 10.1444 7.94173C8.82206 8.88907 8.16089 10.2213 8.16089 11.9383C8.16089 13.6554 8.88127 15.1751 10.322 16.4974C11.0523 17.1685 13.2726 18.3921 16.983 20.1684C20.6935 21.9249 23.2592 23.5236 24.6802 24.9643C26.6538 26.9774 27.6406 29.2767 27.6406 31.8622V32.8687C27.6209 34.4279 27.2361 35.9574 26.4861 37.4574C25.0453 40.2994 22.6079 42.2928 19.1738 43.4375C17.3975 44.0296 15.4239 44.3256 13.2529 44.3256C6.52278 44.3256 2.44723 42.8849 1.02621 40.0034C0.532803 38.9968 0.286099 38.0791 0.286099 37.2502C0.286099 36.4607 0.503198 35.8094 0.937398 35.2963C1.3716 34.7634 1.865 34.497 2.41762 34.497C2.97024 34.497 3.86824 35.0298 5.11163 36.0956C6.37476 37.1614 7.66749 38.0199 8.98982 38.6712C10.3122 39.3028 11.9799 39.6185 13.993 39.6185C16.0061 39.6185 17.7034 39.0857 19.085 38.0199C20.4862 36.9541 21.1869 35.4344 21.1869 33.4608C21.1869 31.4872 20.1902 29.7405 18.1968 28.2208C17.3087 27.5498 15.187 26.4248 11.8319 24.8459C8.49641 23.2473 6.13792 21.7078 4.75638 20.2276C2.9209 18.2737 2.00316 15.9251 2.00316 13.1817C2.00316 9.70813 3.28602 6.97465 5.85174 4.98128C8.41747 2.96817 11.5753 1.96162 15.3252 1.96162H16.3613C20.2494 1.96162 22.973 2.47476 24.5322 3.50105C26.1111 4.50761 26.9005 5.88915 26.9005 7.64568ZM37.5795 43.8816C37.5795 42.8553 36.8788 41.0593 35.4776 38.4936C34.0763 35.9081 32.902 33.5003 31.9546 31.2701C28.7179 23.6716 27.0995 19.2802 27.0995 18.0961C27.0995 17.5632 27.4054 17.0796 28.0172 16.6454C28.6488 16.2112 29.6948 15.9941 31.1553 15.9941C32.6158 15.9941 33.6421 16.6158 34.2342 17.8592C34.2934 17.9974 34.5006 18.8559 34.8559 20.4348C37.54 30.2438 39.2176 35.3851 39.8886 35.8588C40.9149 35.8588 42.3162 33.4608 44.0925 28.6649C45.2964 25.4084 46.0365 22.6749 46.3128 20.4644C46.6088 18.254 46.8457 16.981 47.0233 16.6454C47.5759 15.6192 48.7206 15.106 50.4574 15.106C52.214 15.106 53.0922 15.7869 53.0922 17.1487C53.0922 18.1158 52.737 19.4085 52.0265 21.0269C51.316 22.6453 50.6449 24.4018 50.0134 26.2965C46.4016 37.112 43.7865 43.9408 42.1682 46.7828C40.5498 49.6446 38.8426 51.8945 37.0466 53.5326C35.2506 55.1905 33.4447 56.0194 31.629 56.0194C29.833 56.0194 28.935 55.5063 28.935 54.48C28.935 53.5721 29.8527 52.7432 31.6882 51.9932C33.5434 51.2432 34.8361 50.3748 35.5664 49.388C36.9084 47.592 37.5795 45.7565 37.5795 43.8816ZM81.5315 40.4475C81.5315 41.9079 80.2585 42.6382 77.7125 42.6382C76.2718 42.6382 75.3047 42.2928 74.8113 41.602C74.5744 41.2665 74.456 40.4771 74.456 39.2337L74.3672 37.339C74.229 35.2667 74.16 33.1845 74.16 31.0924C74.16 26.5728 73.7652 23.5433 72.9758 22.0039C72.2061 20.4447 70.9035 19.6651 69.068 19.6651C67.8443 19.6651 66.7095 20.0302 65.6635 20.7605C64.6372 21.4907 63.8477 22.5071 63.2951 23.8097C62.1504 26.4741 61.5781 31.3984 61.5781 38.5824C61.5781 40.2205 61.2623 41.3751 60.6307 42.0461C60.0189 42.7171 59.2294 43.0527 58.2624 43.0527H57.6703C55.4598 43.0527 54.3546 42.1744 54.3546 40.4179V39.7073C54.3546 39.4902 54.473 39.0166 54.7098 38.2863L55.1835 36.9245C55.6572 35.3259 55.894 31.9016 55.894 26.6518L56.042 17.8592C56.042 16.7343 56.6538 16.1718 57.8775 16.1718C59.1011 16.1718 60.3051 16.5764 61.4892 17.3856C62.6932 18.1948 63.453 18.5993 63.7688 18.5993C64.1043 18.5993 64.6865 18.3724 65.5155 17.9184C68.2983 16.3987 70.5285 15.6389 72.2061 15.6389H72.9758C75.9954 15.6389 78.1171 17.0007 79.3408 19.7243C79.9328 21.0072 80.2289 23.7703 80.2289 28.0136V28.2208C80.2289 28.5761 80.219 28.9313 80.1993 29.2866C80.1993 30.2536 80.1993 30.7569 80.1993 30.7964C80.1993 31.1714 80.1993 31.5365 80.1993 31.8918C80.1993 32.1681 80.1993 32.4345 80.1993 32.6911C80.1993 34.2108 80.2486 35.2469 80.3473 35.7996C80.4855 36.5495 80.7124 37.3291 81.0282 38.1383C81.3637 39.0264 81.5315 39.7962 81.5315 40.4475ZM98.4262 40.8323C98.4262 41.6218 97.9426 42.3323 96.9756 42.9638C96.0282 43.5757 94.7355 43.8816 93.0974 43.8816C90.0382 43.8816 87.887 42.7467 86.6436 40.4771C85.8739 39.056 85.489 35.7305 85.489 30.5004C85.489 25.2702 85.4002 22.2308 85.2226 21.3822C85.0449 20.5335 84.5515 19.7046 83.7423 18.8954C82.9332 18.0862 82.5286 17.4645 82.5286 17.0303C82.5286 16.8724 83.4858 15.8363 85.4002 13.9218C85.8147 13.5074 86.2291 12.5896 86.6436 11.1686C87.0778 9.7476 87.3837 8.81013 87.5613 8.35619C88.1534 6.93518 88.933 6.22467 89.9001 6.22467H90.3738C91.2224 6.22467 91.8244 6.55032 92.1796 7.20162C92.3178 7.45819 92.525 8.3858 92.8013 9.98444C93.0974 11.5633 93.4329 12.5798 93.8079 13.0337C94.1829 13.4876 95.1203 13.9909 96.6203 14.5435C98.14 15.0764 98.8998 15.6488 98.8998 16.2606V16.5862C98.8998 17.3757 98.0314 18.0467 96.2947 18.5993C94.5776 19.1322 93.4724 19.9908 92.9789 21.1749C92.0119 23.563 91.5283 27.4511 91.5283 32.8391C91.5283 35.3654 91.9625 37.0824 92.8309 37.9903C93.3638 38.5429 94.4296 38.9278 96.0282 39.1449C97.6269 39.362 98.4262 39.9244 98.4262 40.8323ZM103.967 43.4375C101.638 43.4375 100.474 42.6086 100.474 40.9507C100.474 40.2008 100.651 39.0857 101.007 37.6054C101.381 36.1252 101.628 34.7634 101.747 33.52C101.865 32.2569 102.072 28.1912 102.368 21.323C102.684 14.4547 102.842 10.2706 102.842 8.77065V5.27732L102.664 2.79055C102.664 1.86294 103.513 1.39913 105.21 1.39913C106.927 1.39913 108.043 2.0603 108.556 3.38264C108.812 4.05367 108.941 6.2444 108.941 9.95483C108.941 13.6653 109.01 15.7771 109.148 16.2902C109.306 16.8033 109.71 17.0599 110.362 17.0599C110.44 17.0599 110.815 16.9415 111.486 16.7047L112.138 16.4678C114.25 15.6389 116.075 15.2244 117.615 15.2244C120.851 15.2244 123.151 16.4876 124.512 19.0138C125.42 20.6914 125.874 24.3426 125.874 29.9675C125.874 32.6121 125.894 34.1812 125.933 34.6746C125.973 35.168 126.101 36.066 126.318 37.3686C126.535 38.6515 126.644 39.362 126.644 39.5001C126.644 40.6646 126.378 41.533 125.845 42.1053C125.332 42.6579 124.394 42.9342 123.032 42.9342C121.69 42.9342 120.812 42.5198 120.397 41.6908C120.18 41.2567 120.072 40.0034 120.072 37.9311L119.983 32.7207L120.072 28.0136C120.072 22.744 118.532 20.1092 115.453 20.1092C112.73 20.1092 110.786 21.2539 109.621 23.5433C108.457 25.8327 107.875 30.076 107.875 36.2732L107.964 39.5001C107.964 40.6054 107.618 41.5428 106.927 42.3125C106.237 43.0625 105.25 43.4375 103.967 43.4375ZM138.12 42.5198C137.429 43.0132 136.353 43.2599 134.893 43.2599C133.433 43.2599 132.377 42.9836 131.725 42.431C131.074 41.8586 130.748 41.1185 130.748 40.2106V39.5297C130.748 39.1745 130.985 38.4146 131.459 37.2502C131.952 36.066 132.248 34.8917 132.347 33.7272C133.038 25.7143 133.383 19.7638 133.383 15.8757C133.383 11.9877 133.344 9.718 133.265 9.0667C133.186 8.4154 132.998 7.63581 132.702 6.72794C132.426 5.82007 132.288 5.3464 132.288 5.30693C132.288 4.2609 132.959 3.61947 134.301 3.38264C138.327 2.67213 144.209 2.31687 151.945 2.31687H153.781C155.241 2.31687 156.287 2.51424 156.919 2.90896C157.57 3.30369 157.896 4.0438 157.896 5.1293V5.83981C157.896 7.28056 157.225 8.00094 155.883 8.00094C155.587 8.00094 154.975 7.88252 154.047 7.64568C153.119 7.40885 152.251 7.22135 151.442 7.0832C150.652 6.92531 148.965 6.84636 146.38 6.84636C143.814 6.84636 142.136 7.44832 141.347 8.65224C140.577 9.85615 140.192 12.2245 140.192 15.7573C140.192 17.5731 140.478 18.7868 141.051 19.3987C141.643 19.9908 143.005 20.2868 145.136 20.2868C145.669 20.2868 146.468 20.1783 147.534 19.9612C148.6 19.7441 149.518 19.6355 150.287 19.6355C151.057 19.6355 151.738 19.971 152.33 20.6421C152.942 21.3131 153.248 22.2604 153.248 23.4841C153.248 25.2406 152.34 26.1189 150.524 26.1189L147.09 25.8228C145.59 25.8228 144.248 26.0794 143.064 26.5926C141.88 27.086 141.07 27.6879 140.636 28.3984C139.571 30.1352 139.038 33.0365 139.038 37.1022L139.186 40.5955C139.186 41.3652 138.83 42.0066 138.12 42.5198ZM160.002 2.84976C160.002 1.409 161.354 0.688627 164.058 0.688627H164.591C165.716 0.688627 166.486 0.964936 166.9 1.51755C167.315 2.05043 167.522 3.09646 167.522 4.65563L167.285 9.0667C167.226 9.75747 167.196 10.1325 167.196 10.1917L167.137 11.3166C167.098 12.0469 167.058 12.787 167.019 13.537L166.93 14.6619L166.841 16.3494C166.525 22.3492 166.367 26.7801 166.367 29.6418C166.367 32.4839 166.496 34.5266 166.752 35.77C167.009 37.0133 167.413 38.0692 167.966 38.9376C168.519 39.806 168.795 40.3784 168.795 40.6547V41.0099C168.795 41.8783 168.361 42.5691 167.492 43.0823C166.644 43.5954 165.489 43.852 164.029 43.852H162.489C161.581 43.852 160.782 43.5954 160.091 43.0823C159.42 42.5494 159.085 41.9474 159.085 41.2764V40.4771L159.262 39.2337C159.499 37.5166 159.637 36.2338 159.677 35.3851C159.736 34.5167 159.825 33.3226 159.943 31.8029C160.062 30.2635 160.249 26.9972 160.506 22.0039C160.782 16.9908 160.92 14.2968 160.92 13.9218L161.038 11.7015L161.098 9.51077C161.098 7.41872 160.91 5.92862 160.535 5.04049C160.18 4.13262 160.002 3.40237 160.002 2.84976ZM175.964 31.5069C175.964 34.0924 176.556 36.2436 177.74 37.9607C178.924 39.6777 180.375 40.5363 182.092 40.5363H182.98C185.013 40.5363 186.73 39.51 188.131 37.4574C189.552 35.4048 190.263 32.6713 190.263 29.257V27.3031C190.263 24.6584 189.681 22.4973 188.516 20.8197C187.371 19.1224 185.891 18.2737 184.076 18.2737H183.483C181.372 18.2737 179.595 19.3197 178.155 21.4118C176.734 23.5038 176.023 26.0005 176.023 28.9017L175.964 29.5826V31.5069ZM182.655 44.5625H181.707C178.253 44.5625 175.441 43.3586 173.27 40.9507C171.099 38.5429 170.013 35.1285 170.013 30.7076L170.043 30.2043C170.043 25.3492 171.326 21.5203 173.892 18.7178C175.234 17.2375 176.763 16.152 178.48 15.4613C180.217 14.7508 181.865 14.3955 183.424 14.3955H184.875C186.612 14.3955 188.279 14.7804 189.878 15.5501C194.457 17.7606 196.746 21.9249 196.746 28.0432V28.5169C196.727 30.5102 196.401 32.5332 195.769 34.5858C194.506 38.6317 192.079 41.4935 188.487 43.1711C186.493 44.0987 184.549 44.5625 182.655 44.5625ZM225.793 42.4902C224.392 42.4902 223.178 41.6119 222.152 39.8554C221.481 38.6909 220.415 36.3226 218.954 32.7503C217.514 29.1583 216.695 27.3623 216.497 27.3623C216.438 27.3623 215.619 29.0399 214.04 32.395C212.461 35.7305 211.287 38.0199 210.517 39.2633C209.293 41.2172 208.119 42.1941 206.994 42.1941C206.284 42.1941 205.534 41.9178 204.744 41.3652C203.974 40.7928 203.353 39.8652 202.879 38.5824C202.82 38.4245 202.366 36.7272 201.517 33.4904C200.688 30.2536 199.83 27.2143 198.942 24.3722C198.073 21.5302 197.639 19.6059 197.639 18.5993C197.639 17.5928 197.856 16.8724 198.29 16.4382C198.725 16.004 199.169 15.7869 199.623 15.7869C201.458 15.7869 202.751 16.5468 203.501 18.0665C203.777 18.6191 204.132 20.0006 204.567 22.2111C206.639 30.3227 208.03 34.6252 208.741 35.1187C209.491 35.1187 210.586 32.6121 212.027 27.5991C212.619 25.5465 213.004 23.7012 213.181 22.0631C213.379 20.425 213.507 19.4776 213.566 19.221L213.833 18.2737C214.425 16.7145 215.599 15.9349 217.356 15.9349C219.132 15.9349 220.365 16.8329 221.056 18.6289C221.333 19.3592 221.589 20.6421 221.826 22.4775C222.063 24.2933 222.398 26.1189 222.833 27.9544C223.918 32.6516 224.777 35.0002 225.408 35.0002C226.178 35.0002 227.382 32.5431 229.02 27.6287C229.533 26.0893 230.066 24.2045 230.619 21.9743C231.191 19.7441 231.586 18.402 231.803 17.948C232.513 16.5468 233.638 15.8461 235.178 15.8461C235.987 15.8461 236.391 16.6356 236.391 18.2145C236.391 19.1421 235.385 22.6749 233.372 28.8129C231.359 34.9312 230.145 38.4344 229.73 39.3225C229.316 40.1909 228.724 40.9409 227.954 41.5724C227.184 42.1843 226.464 42.4902 225.793 42.4902Z" fill="white"/>
</svg>
