<svg width="171" height="32" viewBox="0 0 171 32" fill="none" xmlns="http://www.w3.org/2000/svg">
<path d="M9.26754 24.5163C7.55072 24.5163 6.03453 24.2264 4.71905 23.6466C3.40356 23.0445 2.36677 22.1972 1.60868 21.1045C0.850595 19.9895 0.460408 18.6403 0.43811 17.0571H4.95316C4.99774 18.1498 5.38794 19.0752 6.12373 19.8334C6.88182 20.5693 7.91861 20.9372 9.2341 20.9372C10.3712 20.9372 11.2742 20.6696 11.9431 20.1344C12.612 19.5769 12.9465 18.841 12.9465 17.9268C12.9465 16.9679 12.6455 16.2208 12.0435 15.6856C11.4638 15.1504 10.6834 14.7156 9.70233 14.3811C8.72129 14.0466 7.67333 13.6898 6.55851 13.3107C4.75249 12.6863 3.37012 11.8835 2.41135 10.9023C1.4749 9.92117 1.00667 8.61664 1.00667 6.98875C0.984375 5.60618 1.30768 4.42428 1.97657 3.4431C2.66778 2.43962 3.60423 1.67028 4.78594 1.13508C5.96764 0.577581 7.32774 0.298846 8.86621 0.298846C10.427 0.298846 11.7982 0.577581 12.9799 1.13508C14.1839 1.69259 15.1204 2.47307 15.7893 3.47655C16.4805 4.48004 16.8484 5.67308 16.893 7.05565H12.311C12.2887 6.23055 11.9654 5.50583 11.3411 4.88143C10.7391 4.23475 9.89186 3.9114 8.79932 3.9114C7.86286 3.88908 7.07132 4.12323 6.42473 4.61384C5.80042 5.08213 5.48828 5.77343 5.48828 6.68771C5.48828 7.46819 5.73353 8.09259 6.22406 8.56088C6.7146 9.00686 7.3835 9.38598 8.23075 9.69817C9.07801 10.0104 10.0479 10.3448 11.1405 10.7017C12.2999 11.103 13.3589 11.5713 14.3177 12.1065C15.2765 12.6417 16.0457 13.3553 16.6254 14.2473C17.2051 15.117 17.495 16.2431 17.495 17.6257C17.495 18.8522 17.1828 19.9895 16.5585 21.0376C15.9342 22.0856 15.0089 22.933 13.7826 23.5797C12.5563 24.2041 11.0513 24.5163 9.26754 24.5163ZM23.2033 31.4738L27.0495 23.0111H26.0461L19.5913 7.52395H24.2401L28.8889 19.1978L33.7384 7.52395H38.2869L27.7518 31.4738H23.2033ZM41.0856 24.1149V7.52395H44.8649L45.1993 10.3337C45.712 9.35253 46.4478 8.57202 47.4067 7.99224C48.3876 7.41246 49.5361 7.12255 50.8515 7.12255C52.9027 7.12255 54.497 7.76923 55.6341 9.06262C56.7712 10.356 57.3398 12.2515 57.3398 14.749V24.1149H53.0588V15.1504C53.0588 13.7232 52.7689 12.6306 52.1893 11.8724C51.6097 11.1142 50.7067 10.7351 49.4803 10.7351C48.2762 10.7351 47.2839 11.1588 46.5037 12.0062C45.7455 12.8536 45.3665 14.0355 45.3665 15.5518V24.1149H41.0856ZM68.8247 24.1149C67.0856 24.1149 65.692 23.6912 64.6441 22.8438C63.596 21.9965 63.0722 20.4912 63.0722 18.3281V11.103H60.2294V7.52395H63.0722L63.5739 3.07516H67.3532V7.52395H71.8348V11.103H67.3532V18.3616C67.3532 19.1644 67.5204 19.7219 67.8548 20.0341C68.2114 20.324 68.8134 20.4689 69.6609 20.4689H71.7344V24.1149H68.8247ZM75.5104 24.1149V0.03125H79.7913V10.0661C80.3485 9.15183 81.0956 8.43822 82.0321 7.92534C82.9906 7.39015 84.0833 7.12255 85.3097 7.12255C87.3609 7.12255 88.9438 7.76923 90.0589 9.06262C91.196 10.356 91.7645 12.2515 91.7645 14.749V24.1149H87.517V15.1504C87.517 13.7232 87.2271 12.6306 86.6475 11.8724C86.09 11.1142 85.198 10.7351 83.9719 10.7351C82.7679 10.7351 81.7645 11.1588 80.9619 12.0062C80.1813 12.8536 79.7913 14.0355 79.7913 15.5518V24.1149H75.5104ZM95.9582 24.1149V0.700241H111.075V4.14554H100.239V10.7017H109.002V14.0801H100.239V24.1149H95.9582ZM114.279 24.1149V0.03125H118.56V24.1149H114.279ZM150.086 24.1149L145.236 7.52395H149.484L152.36 19.4654L155.705 7.52395H160.454L163.798 19.4654L166.708 7.52395H170.956L166.073 24.1149H161.624L158.079 11.7051L154.534 24.1149H150.086Z" fill="white"/>
<path fill-rule="evenodd" clip-rule="evenodd" d="M132.612 25.7875C138.246 25.7875 142.813 21.2199 142.813 15.5854C142.813 9.95094 138.246 5.3833 132.612 5.3833C126.978 5.3833 122.411 9.95094 122.411 15.5854C122.411 21.2199 126.978 25.7875 132.612 25.7875ZM132.696 21.5718C136.048 21.5718 138.766 18.8538 138.766 15.5011C138.766 12.1483 136.048 9.43043 132.696 9.43043C129.344 9.43043 126.626 12.1483 126.626 15.5011C126.626 18.8538 129.344 21.5718 132.696 21.5718Z" fill="url(#paint0_radial)"/>
<defs>
<radialGradient id="paint0_radial" cx="0" cy="0" r="1" gradientUnits="userSpaceOnUse" gradientTransform="translate(140.452 24.1012) rotate(-122.601) scale(22.2186 22.2173)">
<stop offset="0.135417" stop-color="#032F57"/>
<stop offset="0.626539" stop-color="#118278"/>
<stop offset="0.989583" stop-color="#6CEBBC"/>
</radialGradient>
</defs>
</svg>
