<svg width="32" height="32" viewBox="0 0 32 32" fill="none" xmlns="http://www.w3.org/2000/svg">
<path d="M20.7498 22.3334H17.5832V9.66675H20.7498V22.3334ZM14.4165 22.3334H11.2498V9.66675H14.4165V22.3334ZM15.9998 0.166748C13.9206 0.166748 11.8617 0.576289 9.94068 1.37199C8.01969 2.16769 6.27424 3.33396 4.80398 4.80422C1.83465 7.77355 0.166504 11.8008 0.166504 16.0001C0.166504 20.1993 1.83465 24.2266 4.80398 27.1959C6.27424 28.6662 8.01969 29.8325 9.94068 30.6282C11.8617 31.4239 13.9206 31.8334 15.9998 31.8334C20.1991 31.8334 24.2264 30.1653 27.1957 27.1959C30.165 24.2266 31.8332 20.1993 31.8332 16.0001C31.8332 13.9208 31.4236 11.8619 30.6279 9.94093C29.8322 8.01994 28.666 6.27449 27.1957 4.80422C25.7254 3.33396 23.98 2.16769 22.059 1.37199C20.138 0.576289 18.0791 0.166748 15.9998 0.166748Z" fill="#6CEBBC"/>
</svg>
