<svg width="24" height="28" viewBox="0 0 24 28" fill="none" xmlns="http://www.w3.org/2000/svg">
<path d="M20 19.4401C18.9867 19.4401 18.08 19.8401 17.3867 20.4667L7.88 14.9334C7.94667 14.6267 8 14.3201 8 14.0001C8 13.6801 7.94667 13.3734 7.88 13.0667L17.28 7.58675C18 8.25342 18.9467 8.66675 20 8.66675C21.0609 8.66675 22.0783 8.24532 22.8284 7.49518C23.5786 6.74503 24 5.72761 24 4.66675C24 3.60588 23.5786 2.58847 22.8284 1.83832C22.0783 1.08818 21.0609 0.666748 20 0.666748C18.9391 0.666748 17.9217 1.08818 17.1716 1.83832C16.4214 2.58847 16 3.60588 16 4.66675C16 4.98675 16.0533 5.29341 16.12 5.60008L6.72 11.0801C6 10.4134 5.05333 10.0001 4 10.0001C2.93913 10.0001 1.92172 10.4215 1.17157 11.1717C0.421427 11.9218 0 12.9392 0 14.0001C0 15.0609 0.421427 16.0784 1.17157 16.8285C1.92172 17.5787 2.93913 18.0001 4 18.0001C5.05333 18.0001 6 17.5867 6.72 16.9201L16.2133 22.4534C16.1467 22.7334 16.1067 23.0267 16.1067 23.3334C16.1067 25.4801 17.8533 27.2134 20 27.2134C22.1467 27.2134 23.8933 25.4801 23.8933 23.3334C23.8933 22.3008 23.4831 21.3106 22.753 20.5804C22.0229 19.8503 21.0326 19.4401 20 19.4401Z" fill="#C4C4C4"/>
</svg>
