<svg width="21" height="21" viewBox="0 0 21 21" fill="none" xmlns="http://www.w3.org/2000/svg">
<g clip-path="url(#clip0)">
<path d="M20.3438 1.89062H11.8125V1.07422C11.8125 0.625195 11.5172 0.257812 11.1562 0.257812H9.84375C9.48281 0.257812 9.1875 0.625195 9.1875 1.07422V1.89062H0.65625C0.295312 1.89062 0 2.25801 0 2.70703V2.96484C0 3.41387 0.295312 3.78125 0.65625 3.78125H9.1875V4.59766C9.1875 5.04668 9.48281 5.41406 9.84375 5.41406H11.1562C11.5172 5.41406 11.8125 5.04668 11.8125 4.59766V3.78125H20.3438C20.7047 3.78125 21 3.41387 21 2.96484V2.70703C21 2.25801 20.7047 1.89062 20.3438 1.89062Z" fill="white"/>
<path d="M20.3438 9.53906H16.5789V8.72266C16.5789 8.27363 16.2836 7.90625 15.9227 7.90625H14.6102C14.2493 7.90625 13.9539 8.27363 13.9539 8.72266V9.53906H0.65625C0.295312 9.53906 0 9.90645 0 10.3555V10.6133C0 11.0623 0.295312 11.4297 0.65625 11.4297H13.9539V12.2461C13.9539 12.6951 14.2493 13.0625 14.6102 13.0625H15.9227C16.2836 13.0625 16.5789 12.6951 16.5789 12.2461V11.4297H20.3438C20.7047 11.4297 21 11.0623 21 10.6133V10.3555C21 9.90645 20.7047 9.53906 20.3438 9.53906Z" fill="white"/>
<path d="M20.3437 17.4453H6.49342V16.6289C6.49342 16.1799 6.19811 15.8125 5.83717 15.8125H4.52467C4.16373 15.8125 3.86842 16.1799 3.86842 16.6289V17.4453H0.65625C0.295312 17.4453 0 17.8127 0 18.2617V18.5195C0 18.9686 0.295312 19.3359 0.65625 19.3359H3.86842V20.1523C3.86842 20.6014 4.16373 20.9688 4.52467 20.9688H5.83717C6.19811 20.9688 6.49342 20.6014 6.49342 20.1523V19.3359H20.3437C20.7047 19.3359 21 18.9686 21 18.5195V18.2617C21 17.8127 20.7047 17.4453 20.3437 17.4453Z" fill="white"/>
</g>
<defs>
<clipPath id="clip0">
<rect width="21" height="21" fill="white"/>
</clipPath>
</defs>
</svg>
